<!DOCTYPE svg PUBLIC "-//W3C//DTD SVG 1.1//EN" "http://www.w3.org/Graphics/SVG/1.1/DTD/svg11.dtd">
<!-- Uploaded to: SVG Repo, www.svgrepo.com, Transformed by: SVG Repo Mixer Tools -->
<svg fill="#ffffff" height="800px" width="800px" version="1.1" id="Capa_1" xmlns="http://www.w3.org/2000/svg" xmlns:xlink="http://www.w3.org/1999/xlink" viewBox="-37.58 -37.58 263.08 263.08" xml:space="preserve" transform="rotate(0)" stroke="#ffffff">
<g id="SVGRepo_bgCarrier" stroke-width="0">
<path transform="translate(-37.58, -37.58), scale(8.22125)" d="M16,31.721119794994593C18.656771371255996,30.511282082320594,18.81483675111614,26.75051287127262,20.333937607485158,24.257628197182655C21.096853330408454,23.005663322484594,21.467604152916493,21.376811495466125,22.743566921666794,20.65474815993082C25.469729249248005,19.11202143492463,29.73400536841778,20.420859634671064,31.58256388192001,17.892065810230296C33.055598905477275,15.876981168035607,31.916949145386322,12.319248473188914,30.03801001691783,10.676085046336514C27.92954335383733,8.832195984142501,23.908318765415167,11.296024672723487,21.857955810068297,9.387734785326451C19.722782365132623,7.400511068577174,21.919685624264066,2.9188653975954892,19.68678732469572,1.0421158340804002C17.800581516385336,-0.543238916796732,14.780534676545884,0.7648223114946081,12.413710882088115,1.4498530870230173C10.098976532427427,2.1198075933125633,7.7546622365137114,3.098449635930625,6.205299302619586,4.9440684072568555C4.711395019933407,6.723624201689377,3.984449746315476,9.131358902356043,4.014875254043437,11.454641734859646C4.042246870051179,13.544730292699228,5.687988191148888,15.192397705944394,6.365407081622642,17.169851379688517C6.892028552650852,18.70711226390889,7.232183852003741,20.23115387544301,7.566232420300132,21.821409437898634C8.104883857431329,24.385687586106634,7.244587648334617,27.449880402671816,8.943806154211142,29.444454106847047C10.570170337804415,31.353510077452917,13.717610400506304,32.76047193585155,16,31.721119794994593" fill="#808080" strokewidth="0"/>
</g>
<g id="SVGRepo_tracerCarrier" stroke-linecap="round" stroke-linejoin="round"/>
<g id="SVGRepo_iconCarrier"> <path d="M172.881,98.959c-2.761,0-5-2.239-5-5c0-2.761,2.239-5,5-5h15.037V32.438C187.918,14.552,173.367,0,155.48,0H98.959v15.298 c0,2.761-2.239,5-5,5c-2.761,0-5-2.239-5-5V0H32.438C14.552,0,0,14.552,0,32.438v56.521h15.037c2.761,0,5,2.239,5,5 c0,2.761-2.239,5-5,5H0v56.521c0,17.887,14.552,32.438,32.438,32.438h56.521v-14.776c0-2.761,2.239-5,5-5c2.761,0,5,2.239,5,5 v14.776h56.521c17.887,0,32.438-14.552,32.438-32.438V98.959H172.881z M140.044,76.057L96.231,98.413 c-0.722,0.369-1.5,0.546-2.271,0.546c-1.412,0-2.799-0.598-3.774-1.718L41.476,41.252c-1.813-2.083-1.593-5.241,0.49-7.054 c2.083-1.813,5.242-1.595,7.054,0.49L95.166,87.73l40.333-20.58c2.458-1.257,5.47-0.279,6.726,2.181 C143.481,71.79,142.504,74.802,140.044,76.057z"/> </g>
</svg>